<?xml version="1.0" encoding="UTF-8" standalone="no"?>
<!DOCTYPE svg PUBLIC "-//W3C//DTD SVG 1.1//EN"
 "http://www.w3.org/Graphics/SVG/1.1/DTD/svg11.dtd">
<!-- Generated by graphviz version 2.38.0 (20140413.2041)
 -->
<!-- Title: G Pages: 1 -->
<svg width="751pt" height="340pt"
 viewBox="0.00 0.00 750.50 340.00" xmlns="http://www.w3.org/2000/svg" xmlns:xlink="http://www.w3.org/1999/xlink">
<g id="graph0" class="graph" transform="scale(1 1) rotate(0) translate(4 336)">
<title>G</title>
<polygon fill="white" stroke="none" points="-4,4 -4,-336 746.5,-336 746.5,4 -4,4"/>
<!-- 1 -->
<g id="node1" class="node"><title>1</title>
<polygon fill="beige" stroke="black" points="443.5,-332 389.5,-332 389.5,-296 443.5,-296 443.5,-332"/>
<text text-anchor="middle" x="416.5" y="-310.3" font-family="Times New Roman,serif" font-size="14.00">+</text>
</g>
<!-- 2 -->
<g id="node2" class="node"><title>2</title>
<polygon fill="beige" stroke="black" points="317,-260 172,-260 172,-222 317,-222 317,-260"/>
<text text-anchor="middle" x="244.5" y="-244.8" font-family="Times New Roman,serif" font-size="14.00">masse 1 en 1ère rangée</text>
<text text-anchor="middle" x="244.5" y="-229.8" font-family="Times New Roman,serif" font-size="14.00">(n + 1)*</text>
</g>
<!-- 1&#45;&gt;2 -->
<g id="edge1" class="edge"><title>1&#45;&gt;2</title>
<path fill="none" stroke="black" d="M389.246,-301.75C364.8,-291.659 328.224,-276.56 297.956,-264.066"/>
<polygon fill="black" stroke="black" points="298.953,-260.691 288.374,-260.111 296.282,-267.162 298.953,-260.691"/>
</g>
<!-- 3 -->
<g id="node3" class="node"><title>3</title>
<polygon fill="beige" stroke="black" points="489,-259 344,-259 344,-223 489,-223 489,-259"/>
<text text-anchor="middle" x="416.5" y="-237.3" font-family="Times New Roman,serif" font-size="14.00">masse 2 en 1ère rangée</text>
</g>
<!-- 1&#45;&gt;3 -->
<g id="edge2" class="edge"><title>1&#45;&gt;3</title>
<path fill="none" stroke="black" d="M416.5,-295.813C416.5,-287.789 416.5,-278.047 416.5,-269.069"/>
<polygon fill="black" stroke="black" points="420,-269.029 416.5,-259.029 413,-269.029 420,-269.029"/>
</g>
<!-- 4 -->
<g id="node4" class="node"><title>4</title>
<polygon fill="beige" stroke="black" points="659,-259 514,-259 514,-223 659,-223 659,-259"/>
<text text-anchor="middle" x="586.5" y="-237.3" font-family="Times New Roman,serif" font-size="14.00">masse 3 en 1ère rangée</text>
</g>
<!-- 1&#45;&gt;4 -->
<g id="edge3" class="edge"><title>1&#45;&gt;4</title>
<path fill="none" stroke="black" d="M443.813,-301.593C468.628,-291.229 505.862,-275.678 536.073,-263.061"/>
<polygon fill="black" stroke="black" points="537.731,-266.161 545.61,-259.078 535.034,-259.702 537.731,-266.161"/>
</g>
<!-- 5 -->
<g id="node9" class="node"><title>5</title>
<polygon fill="beige" stroke="black" points="151,-186 0,-186 0,-148 151,-148 151,-186"/>
<text text-anchor="middle" x="75.5" y="-170.8" font-family="Times New Roman,serif" font-size="14.00">masse 1 en 2ème rangée</text>
<text text-anchor="middle" x="75.5" y="-155.8" font-family="Times New Roman,serif" font-size="14.00">2*</text>
</g>
<!-- 2&#45;&gt;5 -->
<g id="edge8" class="edge"><title>2&#45;&gt;5</title>
<path fill="none" stroke="black" d="M201.854,-221.831C179.151,-212.159 151.055,-200.189 127.126,-189.994"/>
<polygon fill="black" stroke="black" points="128.411,-186.738 117.839,-186.038 125.667,-193.177 128.411,-186.738"/>
</g>
<!-- 6 -->
<g id="node10" class="node"><title>6</title>
<polygon fill="beige" stroke="black" points="320,-185 169,-185 169,-149 320,-149 320,-185"/>
<text text-anchor="middle" x="244.5" y="-163.3" font-family="Times New Roman,serif" font-size="14.00">masse 2 en 2ème rangée</text>
</g>
<!-- 2&#45;&gt;6 -->
<g id="edge9" class="edge"><title>2&#45;&gt;6</title>
<path fill="none" stroke="black" d="M244.5,-221.831C244.5,-213.894 244.5,-204.409 244.5,-195.628"/>
<polygon fill="black" stroke="black" points="248,-195.418 244.5,-185.418 241,-195.418 248,-195.418"/>
</g>
<!-- 31 -->
<g id="node5" class="node"><title>31</title>
<polygon fill="beige" stroke="black" points="436.5,-185 382.5,-185 382.5,-149 436.5,-149 436.5,-185"/>
<text text-anchor="middle" x="409.5" y="-163.3" font-family="Times New Roman,serif" font-size="14.00">deux 1</text>
</g>
<!-- 3&#45;&gt;31 -->
<g id="edge4" class="edge"><title>3&#45;&gt;31</title>
<path fill="none" stroke="black" d="M414.841,-222.937C414.042,-214.719 413.064,-204.66 412.164,-195.406"/>
<polygon fill="black" stroke="black" points="415.647,-195.055 411.196,-185.441 408.68,-195.732 415.647,-195.055"/>
</g>
<!-- 32 -->
<g id="node6" class="node"><title>32</title>
<polygon fill="beige" stroke="black" points="512.5,-186 454.5,-186 454.5,-148 512.5,-148 512.5,-186"/>
<text text-anchor="middle" x="483.5" y="-170.8" font-family="Times New Roman,serif" font-size="14.00">un 2</text>
<text text-anchor="middle" x="483.5" y="-155.8" font-family="Times New Roman,serif" font-size="14.00">(n &#45; 1)*</text>
</g>
<!-- 3&#45;&gt;32 -->
<g id="edge5" class="edge"><title>3&#45;&gt;32</title>
<path fill="none" stroke="black" d="M432.378,-222.937C440.5,-214.209 450.554,-203.404 459.591,-193.693"/>
<polygon fill="black" stroke="black" points="462.315,-195.904 466.565,-186.199 457.19,-191.136 462.315,-195.904"/>
</g>
<!-- 11 -->
<g id="node16" class="node"><title>11</title>
<polygon fill="beige" stroke="black" points="642.5,-186 530.5,-186 530.5,-148 642.5,-148 642.5,-186"/>
<text text-anchor="middle" x="586.5" y="-170.8" font-family="Times New Roman,serif" font-size="14.00">trois 1</text>
<text text-anchor="middle" x="586.5" y="-155.8" font-family="Times New Roman,serif" font-size="14.00">binomial(n+1,3)*</text>
</g>
<!-- 4&#45;&gt;11 -->
<g id="edge15" class="edge"><title>4&#45;&gt;11</title>
<path fill="none" stroke="black" d="M586.5,-222.937C586.5,-214.987 586.5,-205.313 586.5,-196.313"/>
<polygon fill="black" stroke="black" points="590,-196.199 586.5,-186.199 583,-196.199 590,-196.199"/>
</g>
<!-- 12 -->
<g id="node17" class="node"><title>12</title>
<polygon fill="beige" stroke="black" points="742.5,-186 660.5,-186 660.5,-148 742.5,-148 742.5,-186"/>
<text text-anchor="middle" x="701.5" y="-170.8" font-family="Times New Roman,serif" font-size="14.00">un 2 et un 1</text>
<text text-anchor="middle" x="701.5" y="-155.8" font-family="Times New Roman,serif" font-size="14.00"> (n&#45;1)*n*</text>
</g>
<!-- 4&#45;&gt;12 -->
<g id="edge16" class="edge"><title>4&#45;&gt;12</title>
<path fill="none" stroke="black" d="M613.753,-222.937C628.661,-213.604 647.359,-201.897 663.661,-191.69"/>
<polygon fill="black" stroke="black" points="665.813,-194.472 672.432,-186.199 662.099,-188.539 665.813,-194.472"/>
</g>
<!-- 311 -->
<g id="node7" class="node"><title>311</title>
<polygon fill="beige" stroke="black" points="355.5,-112 265.5,-112 265.5,-74 355.5,-74 355.5,-112"/>
<text text-anchor="middle" x="310.5" y="-96.8" font-family="Times New Roman,serif" font-size="14.00">deux 1 collés</text>
<text text-anchor="middle" x="310.5" y="-81.8" font-family="Times New Roman,serif" font-size="14.00">n*</text>
</g>
<!-- 31&#45;&gt;311 -->
<g id="edge6" class="edge"><title>31&#45;&gt;311</title>
<path fill="none" stroke="black" d="M386.038,-148.937C373.443,-139.777 357.703,-128.33 343.856,-118.259"/>
<polygon fill="black" stroke="black" points="345.67,-115.25 335.524,-112.199 341.553,-120.912 345.67,-115.25"/>
</g>
<!-- 312 -->
<g id="node8" class="node"><title>312</title>
<polygon fill="beige" stroke="black" points="513.5,-112 373.5,-112 373.5,-74 513.5,-74 513.5,-112"/>
<text text-anchor="middle" x="443.5" y="-96.8" font-family="Times New Roman,serif" font-size="14.00">deux 1 non collés</text>
<text text-anchor="middle" x="443.5" y="-81.8" font-family="Times New Roman,serif" font-size="14.00">(binomial(n+1,2) &#45; n)*</text>
</g>
<!-- 31&#45;&gt;312 -->
<g id="edge7" class="edge"><title>31&#45;&gt;312</title>
<path fill="none" stroke="black" d="M417.558,-148.937C421.434,-140.727 426.179,-130.681 430.545,-121.434"/>
<polygon fill="black" stroke="black" points="433.801,-122.736 434.906,-112.199 427.471,-119.747 433.801,-122.736"/>
</g>
<!-- 10 -->
<g id="node15" class="node"><title>10</title>
<polygon fill="beige" stroke="black" points="683,-112 532,-112 532,-74 683,-74 683,-112"/>
<text text-anchor="middle" x="607.5" y="-96.8" font-family="Times New Roman,serif" font-size="14.00">masse 1 en 3ème rangée</text>
<text text-anchor="middle" x="607.5" y="-81.8" font-family="Times New Roman,serif" font-size="14.00">2*</text>
</g>
<!-- 32&#45;&gt;10 -->
<g id="edge14" class="edge"><title>32&#45;&gt;10</title>
<path fill="none" stroke="black" d="M512.572,-149.119C528.909,-139.633 549.543,-127.653 567.396,-117.286"/>
<polygon fill="black" stroke="black" points="569.552,-120.082 576.442,-112.034 566.037,-114.028 569.552,-120.082"/>
</g>
<!-- 8 -->
<g id="node13" class="node"><title>8</title>
<polygon fill="beige" stroke="black" points="368,-38 217,-38 217,-0 368,-0 368,-38"/>
<text text-anchor="middle" x="292.5" y="-22.8" font-family="Times New Roman,serif" font-size="14.00">masse 1 en 3ème rangée</text>
<text text-anchor="middle" x="292.5" y="-7.8" font-family="Times New Roman,serif" font-size="14.00">3*</text>
</g>
<!-- 311&#45;&gt;8 -->
<g id="edge12" class="edge"><title>311&#45;&gt;8</title>
<path fill="none" stroke="black" d="M305.958,-73.8314C304.012,-66.0463 301.693,-56.7729 299.534,-48.1347"/>
<polygon fill="black" stroke="black" points="302.924,-47.2658 297.103,-38.4133 296.133,-48.9636 302.924,-47.2658"/>
</g>
<!-- 9 -->
<g id="node14" class="node"><title>9</title>
<polygon fill="beige" stroke="black" points="537,-38 386,-38 386,-0 537,-0 537,-38"/>
<text text-anchor="middle" x="461.5" y="-22.8" font-family="Times New Roman,serif" font-size="14.00">masse 1 en 3ème rangée</text>
<text text-anchor="middle" x="461.5" y="-7.8" font-family="Times New Roman,serif" font-size="14.00">4*</text>
</g>
<!-- 312&#45;&gt;9 -->
<g id="edge13" class="edge"><title>312&#45;&gt;9</title>
<path fill="none" stroke="black" d="M448.042,-73.8314C449.988,-66.0463 452.307,-56.7729 454.466,-48.1347"/>
<polygon fill="black" stroke="black" points="457.867,-48.9636 456.897,-38.4133 451.076,-47.2658 457.867,-48.9636"/>
</g>
<!-- 7 -->
<g id="node12" class="node"><title>7</title>
<polygon fill="beige" stroke="black" points="151,-112 0,-112 0,-74 151,-74 151,-112"/>
<text text-anchor="middle" x="75.5" y="-96.8" font-family="Times New Roman,serif" font-size="14.00">masse 1 en 3ème rangée</text>
<text text-anchor="middle" x="75.5" y="-81.8" font-family="Times New Roman,serif" font-size="14.00">2*</text>
</g>
<!-- 5&#45;&gt;7 -->
<g id="edge11" class="edge"><title>5&#45;&gt;7</title>
<path fill="none" stroke="black" d="M75.5,-147.831C75.5,-140.131 75.5,-130.974 75.5,-122.417"/>
<polygon fill="black" stroke="black" points="79.0001,-122.413 75.5,-112.413 72.0001,-122.413 79.0001,-122.413"/>
</g>
<!-- 61 -->
<g id="node11" class="node"><title>61</title>
<polygon fill="beige" stroke="black" points="247.5,-112 193.5,-112 193.5,-74 247.5,-74 247.5,-112"/>
<text text-anchor="middle" x="220.5" y="-96.8" font-family="Times New Roman,serif" font-size="14.00">deux 1</text>
<text text-anchor="middle" x="220.5" y="-81.8" font-family="Times New Roman,serif" font-size="14.00">1*</text>
</g>
<!-- 6&#45;&gt;61 -->
<g id="edge10" class="edge"><title>6&#45;&gt;61</title>
<path fill="none" stroke="black" d="M238.812,-148.937C236.105,-140.814 232.797,-130.892 229.742,-121.727"/>
<polygon fill="black" stroke="black" points="233.049,-120.579 226.566,-112.199 226.408,-122.793 233.049,-120.579"/>
</g>
</g>
</svg>
