<?xml version="1.0" encoding="UTF-8" standalone="no"?>
<!DOCTYPE svg PUBLIC "-//W3C//DTD SVG 1.1//EN"
 "http://www.w3.org/Graphics/SVG/1.1/DTD/svg11.dtd">
<!-- Generated by graphviz version 2.38.0 (20140413.2041)
 -->
<!-- Title: G Pages: 1 -->
<svg width="383pt" height="584pt"
 viewBox="0.00 0.00 383.00 584.00" xmlns="http://www.w3.org/2000/svg" xmlns:xlink="http://www.w3.org/1999/xlink">
<g id="graph0" class="graph" transform="scale(1 1) rotate(0) translate(4 580)">
<title>G</title>
<polygon fill="white" stroke="none" points="-4,4 -4,-580 379,-580 379,4 -4,4"/>
<!-- abs(x) -->
<g id="node1" class="node"><title>abs(x)</title>
<polygon fill="green" stroke="black" points="144,-481 90,-481 90,-445 144,-445 144,-481"/>
<text text-anchor="middle" x="117" y="-459.3" font-family="Times New Roman,serif" font-size="14.00">abs(x)</text>
</g>
<!-- abs(x)+1 -->
<g id="node5" class="node"><title>abs(x)+1</title>
<polygon fill="yellow" stroke="black" points="247,-562 180,-562 180,-526 247,-526 247,-562"/>
<text text-anchor="middle" x="213.5" y="-540.3" font-family="Times New Roman,serif" font-size="14.00">abs(x)+1</text>
</g>
<!-- abs(x)&#45;&gt;abs(x)+1 -->
<g id="edge4" class="edge"><title>abs(x)&#45;&gt;abs(x)+1</title>
<path fill="none" stroke="black" d="M139.444,-481.38C152.584,-492.644 169.567,-507.2 183.851,-519.443"/>
<polygon fill="black" stroke="black" points="181.597,-522.121 191.467,-525.972 186.152,-516.806 181.597,-522.121"/>
</g>
<!-- abs(x)&#45;1 -->
<g id="node6" class="node"><title>abs(x)&#45;1</title>
<polygon fill="lightgray" stroke="black" points="245,-481 182,-481 182,-445 245,-445 245,-481"/>
<text text-anchor="middle" x="213.5" y="-459.3" font-family="Times New Roman,serif" font-size="14.00">abs(x)&#45;1</text>
</g>
<!-- abs(x)&#45;&gt;abs(x)&#45;1 -->
<g id="edge5" class="edge"><title>abs(x)&#45;&gt;abs(x)&#45;1</title>
<path fill="none" stroke="black" d="M144.073,-463C152.567,-463 162.213,-463 171.527,-463"/>
<polygon fill="black" stroke="black" points="171.824,-466.5 181.824,-463 171.824,-459.5 171.824,-466.5"/>
</g>
<!-- x -->
<g id="node2" class="node"><title>x</title>
<polygon fill="none" stroke="black" points="54,-333 0,-333 0,-297 54,-297 54,-333"/>
<text text-anchor="middle" x="27" y="-311.3" font-family="Times New Roman,serif" font-size="14.00">x</text>
</g>
<!-- x&#45;&gt;abs(x) -->
<g id="edge1" class="edge"><title>x&#45;&gt;abs(x)</title>
<path fill="none" stroke="black" d="M38.7905,-333.148C54.0967,-358.89 82.2214,-406.19 99.9713,-436.043"/>
<polygon fill="black" stroke="black" points="97.002,-437.897 105.121,-444.704 103.019,-434.32 97.002,-437.897"/>
</g>
<!-- x+1 -->
<g id="node3" class="node"><title>x+1</title>
<polygon fill="lightgray" stroke="black" points="144,-333 90,-333 90,-297 144,-297 144,-333"/>
<text text-anchor="middle" x="117" y="-311.3" font-family="Times New Roman,serif" font-size="14.00">x+1</text>
</g>
<!-- x&#45;&gt;x+1 -->
<g id="edge2" class="edge"><title>x&#45;&gt;x+1</title>
<path fill="none" stroke="black" d="M54.4029,-315C62.3932,-315 71.3106,-315 79.8241,-315"/>
<polygon fill="black" stroke="black" points="79.919,-318.5 89.919,-315 79.919,-311.5 79.919,-318.5"/>
</g>
<!-- x&#45;1 -->
<g id="node4" class="node"><title>x&#45;1</title>
<polygon fill="lightgray" stroke="black" points="144,-171 90,-171 90,-135 144,-135 144,-171"/>
<text text-anchor="middle" x="117" y="-149.3" font-family="Times New Roman,serif" font-size="14.00">x&#45;1</text>
</g>
<!-- x&#45;&gt;x&#45;1 -->
<g id="edge3" class="edge"><title>x&#45;&gt;x&#45;1</title>
<path fill="none" stroke="black" d="M37.9237,-296.731C53.3063,-268.413 83.0064,-213.738 101.012,-180.591"/>
<polygon fill="black" stroke="black" points="104.28,-181.908 105.978,-171.45 98.1287,-178.567 104.28,-181.908"/>
</g>
<!-- abs(x+1) -->
<g id="node7" class="node"><title>abs(x+1)</title>
<polygon fill="green" stroke="black" points="247,-360 180,-360 180,-324 247,-324 247,-360"/>
<text text-anchor="middle" x="213.5" y="-338.3" font-family="Times New Roman,serif" font-size="14.00">abs(x+1)</text>
</g>
<!-- x+1&#45;&gt;abs(x+1) -->
<g id="edge6" class="edge"><title>x+1&#45;&gt;abs(x+1)</title>
<path fill="none" stroke="black" d="M144.073,-322.449C152.091,-324.74 161.135,-327.324 169.957,-329.845"/>
<polygon fill="black" stroke="black" points="169.181,-333.263 179.758,-332.645 171.105,-326.533 169.181,-333.263"/>
</g>
<!-- x+2 -->
<g id="node8" class="node"><title>x+2</title>
<polygon fill="lightgray" stroke="black" points="240.5,-306 186.5,-306 186.5,-270 240.5,-270 240.5,-306"/>
<text text-anchor="middle" x="213.5" y="-284.3" font-family="Times New Roman,serif" font-size="14.00">x+2</text>
</g>
<!-- x+1&#45;&gt;x+2 -->
<g id="edge7" class="edge"><title>x+1&#45;&gt;x+2</title>
<path fill="none" stroke="black" d="M144.073,-307.551C154.111,-304.682 165.758,-301.355 176.565,-298.267"/>
<polygon fill="black" stroke="black" points="177.531,-301.631 186.184,-295.519 175.608,-294.901 177.531,-301.631"/>
</g>
<!-- abs(x&#45;1) -->
<g id="node9" class="node"><title>abs(x&#45;1)</title>
<polygon fill="green" stroke="black" points="245,-171 182,-171 182,-135 245,-135 245,-171"/>
<text text-anchor="middle" x="213.5" y="-149.3" font-family="Times New Roman,serif" font-size="14.00">abs(x&#45;1)</text>
</g>
<!-- x&#45;1&#45;&gt;abs(x&#45;1) -->
<g id="edge8" class="edge"><title>x&#45;1&#45;&gt;abs(x&#45;1)</title>
<path fill="none" stroke="black" d="M144.073,-153C152.567,-153 162.213,-153 171.527,-153"/>
<polygon fill="black" stroke="black" points="171.824,-156.5 181.824,-153 171.824,-149.5 171.824,-156.5"/>
</g>
<!-- x&#45;2 -->
<g id="node10" class="node"><title>x&#45;2</title>
<polygon fill="lightgray" stroke="black" points="240.5,-90 186.5,-90 186.5,-54 240.5,-54 240.5,-90"/>
<text text-anchor="middle" x="213.5" y="-68.3" font-family="Times New Roman,serif" font-size="14.00">x&#45;2</text>
</g>
<!-- x&#45;1&#45;&gt;x&#45;2 -->
<g id="edge9" class="edge"><title>x&#45;1&#45;&gt;x&#45;2</title>
<path fill="none" stroke="black" d="M139.444,-134.62C152.584,-123.356 169.567,-108.8 183.851,-96.5566"/>
<polygon fill="black" stroke="black" points="186.152,-99.1937 191.467,-90.0284 181.597,-93.8789 186.152,-99.1937"/>
</g>
<!-- abs(x)+2 -->
<g id="node11" class="node"><title>abs(x)+2</title>
<polygon fill="yellow" stroke="black" points="362.5,-576 295.5,-576 295.5,-540 362.5,-540 362.5,-576"/>
<text text-anchor="middle" x="329" y="-554.3" font-family="Times New Roman,serif" font-size="14.00">abs(x)+2</text>
</g>
<!-- abs(x)+1&#45;&gt;abs(x)+2 -->
<g id="edge10" class="edge"><title>abs(x)+1&#45;&gt;abs(x)+2</title>
<path fill="none" stroke="black" d="M247.025,-548.012C259.016,-549.491 272.785,-551.189 285.526,-552.761"/>
<polygon fill="black" stroke="black" points="285.117,-556.237 295.471,-553.988 285.974,-549.29 285.117,-556.237"/>
</g>
<!-- abs(abs(x)&#45;1) -->
<g id="node12" class="node"><title>abs(abs(x)&#45;1)</title>
<polygon fill="green" stroke="black" points="375,-522 283,-522 283,-486 375,-486 375,-522"/>
<text text-anchor="middle" x="329" y="-500.3" font-family="Times New Roman,serif" font-size="14.00">abs(abs(x)&#45;1)</text>
</g>
<!-- abs(x)&#45;1&#45;&gt;abs(abs(x)&#45;1) -->
<g id="edge11" class="edge"><title>abs(x)&#45;1&#45;&gt;abs(abs(x)&#45;1)</title>
<path fill="none" stroke="black" d="M245.215,-474.095C253.881,-477.226 263.581,-480.73 273.206,-484.207"/>
<polygon fill="black" stroke="black" points="272.17,-487.554 282.765,-487.659 274.549,-480.97 272.17,-487.554"/>
</g>
<!-- abs(x)&#45;2 -->
<g id="node13" class="node"><title>abs(x)&#45;2</title>
<polygon fill="lightgray" stroke="black" points="360.5,-468 297.5,-468 297.5,-432 360.5,-432 360.5,-468"/>
<text text-anchor="middle" x="329" y="-446.3" font-family="Times New Roman,serif" font-size="14.00">abs(x)&#45;2</text>
</g>
<!-- abs(x)&#45;1&#45;&gt;abs(x)&#45;2 -->
<g id="edge12" class="edge"><title>abs(x)&#45;1&#45;&gt;abs(x)&#45;2</title>
<path fill="none" stroke="black" d="M245.215,-459.482C258.084,-458.008 273.235,-456.273 287.033,-454.692"/>
<polygon fill="black" stroke="black" points="287.724,-458.136 297.261,-453.521 286.927,-451.182 287.724,-458.136"/>
</g>
<!-- abs(x+1)+1 -->
<g id="node14" class="node"><title>abs(x+1)+1</title>
<polygon fill="yellow" stroke="black" points="370,-414 288,-414 288,-378 370,-378 370,-414"/>
<text text-anchor="middle" x="329" y="-392.3" font-family="Times New Roman,serif" font-size="14.00">abs(x+1)+1</text>
</g>
<!-- abs(x+1)&#45;&gt;abs(x+1)+1 -->
<g id="edge13" class="edge"><title>abs(x+1)&#45;&gt;abs(x+1)+1</title>
<path fill="none" stroke="black" d="M247.025,-357.474C257.465,-362.441 269.251,-368.049 280.534,-373.417"/>
<polygon fill="black" stroke="black" points="279.32,-376.715 289.853,-377.851 282.327,-370.394 279.32,-376.715"/>
</g>
<!-- abs(x+1)&#45;1 -->
<g id="node15" class="node"><title>abs(x+1)&#45;1</title>
<polygon fill="lightgray" stroke="black" points="368,-360 290,-360 290,-324 368,-324 368,-360"/>
<text text-anchor="middle" x="329" y="-338.3" font-family="Times New Roman,serif" font-size="14.00">abs(x+1)&#45;1</text>
</g>
<!-- abs(x+1)&#45;&gt;abs(x+1)&#45;1 -->
<g id="edge14" class="edge"><title>abs(x+1)&#45;&gt;abs(x+1)&#45;1</title>
<path fill="none" stroke="black" d="M247.025,-342C257.151,-342 268.545,-342 279.518,-342"/>
<polygon fill="black" stroke="black" points="279.853,-345.5 289.853,-342 279.853,-338.5 279.853,-345.5"/>
</g>
<!-- abs(x+2) -->
<g id="node16" class="node"><title>abs(x+2)</title>
<polygon fill="green" stroke="black" points="362.5,-306 295.5,-306 295.5,-270 362.5,-270 362.5,-306"/>
<text text-anchor="middle" x="329" y="-284.3" font-family="Times New Roman,serif" font-size="14.00">abs(x+2)</text>
</g>
<!-- x+2&#45;&gt;abs(x+2) -->
<g id="edge15" class="edge"><title>x+2&#45;&gt;abs(x+2)</title>
<path fill="none" stroke="black" d="M240.539,-288C253.727,-288 270.081,-288 285.066,-288"/>
<polygon fill="black" stroke="black" points="285.166,-291.5 295.166,-288 285.166,-284.5 285.166,-291.5"/>
</g>
<!-- x+3 -->
<g id="node17" class="node"><title>x+3</title>
<polygon fill="lightgray" stroke="black" points="356,-252 302,-252 302,-216 356,-216 356,-252"/>
<text text-anchor="middle" x="329" y="-230.3" font-family="Times New Roman,serif" font-size="14.00">x+3</text>
</g>
<!-- x+2&#45;&gt;x+3 -->
<g id="edge16" class="edge"><title>x+2&#45;&gt;x+3</title>
<path fill="none" stroke="black" d="M240.539,-275.611C255.858,-268.323 275.449,-259.002 292.205,-251.03"/>
<polygon fill="black" stroke="black" points="294.163,-253.975 301.689,-246.518 291.155,-247.654 294.163,-253.975"/>
</g>
<!-- abs(x&#45;1)+1 -->
<g id="node18" class="node"><title>abs(x&#45;1)+1</title>
<polygon fill="yellow" stroke="black" points="368,-198 290,-198 290,-162 368,-162 368,-198"/>
<text text-anchor="middle" x="329" y="-176.3" font-family="Times New Roman,serif" font-size="14.00">abs(x&#45;1)+1</text>
</g>
<!-- abs(x&#45;1)&#45;&gt;abs(x&#45;1)+1 -->
<g id="edge17" class="edge"><title>abs(x&#45;1)&#45;&gt;abs(x&#45;1)+1</title>
<path fill="none" stroke="black" d="M245.215,-160.307C255.986,-162.869 268.354,-165.811 280.19,-168.627"/>
<polygon fill="black" stroke="black" points="279.422,-172.042 289.961,-170.951 281.042,-165.232 279.422,-172.042"/>
</g>
<!-- abs(x&#45;1)&#45;1 -->
<g id="node19" class="node"><title>abs(x&#45;1)&#45;1</title>
<polygon fill="lightgray" stroke="black" points="366,-144 292,-144 292,-108 366,-108 366,-144"/>
<text text-anchor="middle" x="329" y="-122.3" font-family="Times New Roman,serif" font-size="14.00">abs(x&#45;1)&#45;1</text>
</g>
<!-- abs(x&#45;1)&#45;&gt;abs(x&#45;1)&#45;1 -->
<g id="edge18" class="edge"><title>abs(x&#45;1)&#45;&gt;abs(x&#45;1)&#45;1</title>
<path fill="none" stroke="black" d="M245.215,-145.693C256.396,-143.034 269.299,-139.964 281.541,-137.052"/>
<polygon fill="black" stroke="black" points="282.697,-140.375 291.616,-134.655 281.077,-133.565 282.697,-140.375"/>
</g>
<!-- abs(x&#45;2) -->
<g id="node20" class="node"><title>abs(x&#45;2)</title>
<polygon fill="green" stroke="black" points="360.5,-90 297.5,-90 297.5,-54 360.5,-54 360.5,-90"/>
<text text-anchor="middle" x="329" y="-68.3" font-family="Times New Roman,serif" font-size="14.00">abs(x&#45;2)</text>
</g>
<!-- x&#45;2&#45;&gt;abs(x&#45;2) -->
<g id="edge19" class="edge"><title>x&#45;2&#45;&gt;abs(x&#45;2)</title>
<path fill="none" stroke="black" d="M240.539,-72C254.259,-72 271.405,-72 286.872,-72"/>
<polygon fill="black" stroke="black" points="287.249,-75.5001 297.249,-72 287.249,-68.5001 287.249,-75.5001"/>
</g>
<!-- x&#45;3 -->
<g id="node21" class="node"><title>x&#45;3</title>
<polygon fill="lightgray" stroke="black" points="356,-36 302,-36 302,-0 356,-0 356,-36"/>
<text text-anchor="middle" x="329" y="-14.3" font-family="Times New Roman,serif" font-size="14.00">x&#45;3</text>
</g>
<!-- x&#45;2&#45;&gt;x&#45;3 -->
<g id="edge20" class="edge"><title>x&#45;2&#45;&gt;x&#45;3</title>
<path fill="none" stroke="black" d="M240.539,-59.6113C255.858,-52.3231 275.449,-43.0022 292.205,-35.0303"/>
<polygon fill="black" stroke="black" points="294.163,-37.9749 301.689,-30.518 291.155,-31.6538 294.163,-37.9749"/>
</g>
</g>
</svg>
